<svg xmlns="http://www.w3.org/2000/svg" version="1.1" xmlns:xlink="http://www.w3.org/1999/xlink" xmlns:svgjs="http://svgjs.com/svgjs" width="1440" height="560" preserveAspectRatio="none" viewBox="0 0 1440 560"><g mask="url(&quot;#SvgjsMask1028&quot;)" fill="none"><rect width="1440" height="560" x="0" y="0" fill="rgba(212, 241, 248, 1)"></rect><path d="M 0,13 C 57.6,49 172.8,183.4 288,193 C 403.2,202.6 460.8,50.4 576,61 C 691.2,71.6 748.8,242.6 864,246 C 979.2,249.4 1036.8,80 1152,78 C 1267.2,76 1382.4,204.4 1440,236L1440 560L0 560z" fill="rgba(166, 225, 249, 1)"></path><path d="M 0,453 C 72,434.2 216,339.8 360,359 C 504,378.2 576,556.8 720,549 C 864,541.2 936,331.6 1080,320 C 1224,308.4 1368,456.8 1440,491L1440 560L0 560z" fill="rgba(75, 199, 206, 1)"></path></g><defs><mask id="SvgjsMask1028"><rect width="1440" height="560" fill="#ffffff"></rect></mask></defs></svg>